<svg width="221" height="74" viewBox="0 0 221 74" fill="none" xmlns="http://www.w3.org/2000/svg">
<path d="M207.556 21.0453V35.9334L186.005 35.9373V21.0453H179.461V43.1657H180.224C188.004 43.1618 195.783 43.1541 203.562 43.1426C205.074 43.1406 206.587 43.1361 208.099 43.1316C210.149 43.1255 212.198 43.1194 214.249 43.1195V45.6842H220.122V35.8729H214.311C214.227 35.7432 214.227 35.5108 214.227 35.0935V21.9256C214.227 21.7132 214.214 21.4989 214.201 21.2961C214.196 21.2101 214.191 21.1261 214.187 21.0453H207.556Z" fill="#00578A"/>
<path d="M131.805 29.7513V43.0972H125.201V21.0526C126.937 21.0526 128.647 21.0525 130.356 21.0621C130.594 21.0987 130.824 21.1788 131.034 21.2984C136.928 23.8048 142.818 26.3183 148.704 28.8388C148.94 28.9501 149.197 29.0057 149.457 29.0014C149.717 28.997 149.973 28.9329 150.205 28.8138C155.907 26.2895 161.616 23.7824 167.333 21.2927C167.685 21.1435 168.062 21.0632 168.444 21.0564C169.989 21.0314 171.531 21.0564 173.133 21.0564V43.126H166.562V29.8243C166.203 29.9684 165.96 30.0568 165.728 30.1605C160.577 32.4402 155.429 34.725 150.285 37.015C150.056 37.1354 149.802 37.2008 149.544 37.2062C149.286 37.2115 149.03 37.1566 148.796 37.0458C143.434 34.7123 138.064 32.3954 132.685 30.0952C132.425 29.9741 132.156 29.8858 131.805 29.7513Z" fill="#00578A"/>
<path d="M84.2712 21.0453H119.126V22.12C119.126 23.8381 119.09 25.5561 119.141 27.2741C119.164 27.9976 118.91 28.1503 118.231 28.1484C109.461 28.128 100.692 28.1236 91.9222 28.135H90.8704V42.8568H84.2712V21.0453Z" fill="#00578A"/>
<path d="M84.1368 54.0319V49.5888H87.3682V50.2339H84.9594V54.0319H84.1368Z" fill="#151515"/>
<path d="M90.1965 54.0312C89.7986 54.041 89.4053 53.9454 89.0575 53.7544C88.7355 53.5683 88.4755 53.2936 88.3091 52.964C88.1232 52.5854 88.0317 52.1685 88.0422 51.7479C88.0307 51.3241 88.1222 50.9038 88.3091 50.5222C88.4755 50.1925 88.7355 49.9179 89.0575 49.7318C89.4049 49.5399 89.7985 49.4443 90.1965 49.455C90.5956 49.445 90.9902 49.5406 91.3393 49.7318C91.662 49.9163 91.9219 50.1914 92.0857 50.5222C92.2696 50.9013 92.3597 51.3181 92.3487 51.7383C92.3602 52.1616 92.27 52.5816 92.0857 52.964C91.9219 53.2947 91.662 53.5699 91.3393 53.7544C90.9898 53.9447 90.5955 54.0402 90.1965 54.0312ZM90.1965 53.3974C90.3793 53.4039 90.5612 53.3695 90.7287 53.2968C90.8961 53.224 91.0447 53.1148 91.1633 52.9774C91.407 52.6948 91.5288 52.2818 91.5288 51.7383C91.5288 51.1948 91.407 50.785 91.1633 50.5088C91.0434 50.3734 90.8944 50.266 90.7271 50.1947C90.5598 50.1233 90.3785 50.0898 90.1965 50.0964C90.0143 50.0895 89.8329 50.1229 89.6656 50.1943C89.4983 50.2657 89.3493 50.3732 89.2296 50.5088C88.9898 50.7838 88.8699 51.1936 88.8699 51.7383C88.8699 52.2831 88.9898 52.6961 89.2296 52.9774C89.348 53.1151 89.4966 53.2244 89.6641 53.2972C89.8316 53.3699 90.0136 53.4042 90.1965 53.3974Z" fill="#151515"/>
<path d="M93.6345 55.9168V50.5913C93.6345 50.4196 93.6345 50.244 93.6148 50.0665C93.595 49.889 93.5852 49.7115 93.5615 49.5339H94.3502L94.4488 50.5643H94.3502C94.4331 50.2323 94.6398 49.9425 94.9299 49.752C95.2438 49.5484 95.6142 49.4447 95.9906 49.4548C96.3638 49.4467 96.7316 49.5424 97.0514 49.7308C97.3607 49.9215 97.6056 50.1973 97.7552 50.5238C97.9298 50.9139 98.0146 51.3368 98.0037 51.7626C98.0144 52.1895 97.9296 52.6136 97.7552 53.0052C97.6069 53.3339 97.3618 53.612 97.0514 53.804C96.7316 53.9923 96.3638 54.0881 95.9906 54.0799C95.6187 54.0885 95.2531 53.9848 94.9437 53.7828C94.6562 53.5907 94.4469 53.3059 94.3522 52.9782H94.4507V55.9168H93.6345ZM95.8033 53.4393C95.9916 53.4468 96.1791 53.4125 96.3519 53.339C96.5247 53.2655 96.6782 53.1547 96.801 53.0148C97.0481 52.7292 97.1716 52.3118 97.1716 51.7626C97.1716 51.2133 97.0481 50.7991 96.801 50.52C96.6769 50.3821 96.5229 50.2732 96.3503 50.2011C96.1777 50.129 95.9908 50.0955 95.8033 50.1031C95.6176 50.0961 95.4327 50.1299 95.2621 50.2021C95.0915 50.2742 94.9396 50.3828 94.8175 50.52C94.573 50.7978 94.4507 51.212 94.4507 51.7626C94.4507 52.3131 94.573 52.7305 94.8175 53.0148C94.9391 53.155 95.0918 53.2662 95.2641 53.3398C95.4363 53.4133 95.6234 53.4474 95.8112 53.4393H95.8033Z" fill="#151515"/>
<path d="M101.1 54.0313C100.702 54.0407 100.309 53.9452 99.9613 53.7544C99.6406 53.5674 99.3814 53.2929 99.2149 52.964C99.029 52.5854 98.9375 52.1685 98.948 51.7479C98.9364 51.3241 99.028 50.9038 99.2149 50.5221C99.3814 50.1932 99.6406 49.9188 99.9613 49.7318C100.309 49.5402 100.702 49.4445 101.1 49.4549C101.5 49.4448 101.894 49.5404 102.243 49.7318C102.566 49.9163 102.827 50.1913 102.992 50.5221C103.175 50.9015 103.265 51.3182 103.255 51.7383C103.265 52.1615 103.175 52.5813 102.992 52.964C102.827 53.2948 102.566 53.5699 102.243 53.7544C101.894 53.945 101.499 54.0405 101.1 54.0313ZM101.1 53.3974C101.283 53.4039 101.465 53.3695 101.633 53.2968C101.8 53.2241 101.949 53.1149 102.067 52.9774C102.31 52.6948 102.431 52.2818 102.431 51.7383C102.431 51.1948 102.31 50.785 102.067 50.5088C101.947 50.3735 101.798 50.2662 101.631 50.1949C101.464 50.1236 101.282 50.0899 101.1 50.0964C100.918 50.0893 100.737 50.1227 100.569 50.1941C100.402 50.2655 100.253 50.373 100.133 50.5088C99.8924 50.7837 99.7718 51.1936 99.7718 51.7383C99.7718 52.2831 99.8924 52.6961 100.133 52.9774C100.252 53.1152 100.4 53.2246 100.568 53.2974C100.735 53.3702 100.917 53.4044 101.1 53.3974Z" fill="#151515"/>
<path d="M104.198 55.109V53.3574H104.686C104.896 53.0377 105.045 52.6831 105.126 52.311C105.224 51.8401 105.27 51.3603 105.263 50.8797V49.5888H108.469V53.3574H109.18V55.109H108.487V53.9716H104.891V55.109H104.198ZM105.451 53.365H107.715V50.203H105.977V51.0238C105.978 51.4556 105.934 51.8864 105.844 52.3091C105.768 52.68 105.632 53.0364 105.441 53.365H105.451Z" fill="#151515"/>
<path d="M112.215 54.0312C111.804 54.0413 111.397 53.9458 111.036 53.7543C110.703 53.5677 110.434 53.2893 110.264 52.9543C110.07 52.5676 109.976 52.1412 109.989 51.7114C109.976 51.2898 110.072 50.8718 110.268 50.4953C110.446 50.1684 110.719 49.8996 111.054 49.722C111.412 49.5378 111.813 49.4458 112.219 49.4548C112.512 49.4541 112.802 49.5032 113.077 49.5999C113.334 49.6841 113.567 49.8268 113.755 50.0161L113.476 50.5793C113.311 50.4205 113.114 50.2964 112.897 50.2146C112.698 50.1383 112.487 50.0982 112.274 50.0962C112.078 50.0864 111.883 50.1186 111.701 50.1905C111.52 50.2625 111.357 50.3724 111.224 50.5124C110.972 50.7912 110.845 51.1941 110.845 51.721C110.815 52.1619 110.95 52.5985 111.224 52.9505C111.355 53.0942 111.517 53.2075 111.699 53.2818C111.88 53.3562 112.077 53.3898 112.274 53.3801C112.484 53.3778 112.692 53.339 112.889 53.2656C113.108 53.186 113.309 53.0639 113.478 52.9066L113.757 53.4603C113.565 53.6542 113.328 53.8003 113.066 53.8861C112.793 53.9813 112.505 54.0304 112.215 54.0312Z" fill="#151515"/>
<path d="M114.834 54.0319V49.5888H115.635V51.4263H116.451L117.899 49.5888H118.785L117.104 51.747L116.89 51.5012C117.046 51.5138 117.198 51.5568 117.337 51.6279C117.473 51.7062 117.595 51.8061 117.699 51.9236C117.84 52.0868 117.966 52.2615 118.078 52.4459L119.008 54.0261H118.132L117.318 52.6571C117.246 52.522 117.156 52.3973 117.05 52.2865C116.967 52.1999 116.864 52.1341 116.75 52.0945C116.615 52.0566 116.475 52.0391 116.335 52.0427H115.635V54.0204L114.834 54.0319Z" fill="#151515"/>
<path d="M121.836 54.0312C121.438 54.041 121.044 53.9454 120.696 53.7544C120.374 53.5683 120.114 53.2936 119.948 52.964C119.762 52.5852 119.671 52.1683 119.682 51.7479C119.67 51.3243 119.761 50.904 119.948 50.5222C120.114 50.1925 120.374 49.9179 120.696 49.7318C121.044 49.5399 121.438 49.4443 121.836 49.455C122.235 49.4448 122.63 49.5404 122.979 49.7318C123.302 49.9163 123.562 50.1914 123.726 50.5222C123.91 50.9013 124 51.3181 123.989 51.7383C124 52.1616 123.91 52.5816 123.726 52.964C123.562 53.2947 123.302 53.5699 122.979 53.7544C122.629 53.9449 122.235 54.0404 121.836 54.0312ZM121.836 53.3974C122.019 53.4039 122.201 53.3695 122.368 53.2968C122.536 53.224 122.684 53.1148 122.803 52.9774C123.047 52.6948 123.169 52.2818 123.169 51.7383C123.169 51.1948 123.047 50.785 122.803 50.5088C122.683 50.3734 122.534 50.266 122.367 50.1947C122.199 50.1233 122.018 50.0898 121.836 50.0964C121.653 50.0895 121.472 50.1229 121.305 50.1943C121.137 50.2657 120.988 50.3732 120.868 50.5088C120.628 50.7838 120.509 51.1936 120.509 51.7383C120.509 52.2831 120.628 52.6961 120.868 52.9774C120.987 53.1151 121.136 53.2244 121.303 53.2972C121.471 53.3699 121.653 53.4042 121.836 53.3974Z" fill="#151515"/>
<path d="M125.201 54.0222V49.5687H125.957V53.2716H125.71L128.55 49.5783H129.241V54.0318H128.485V50.3308H128.74L125.892 54.0318L125.201 54.0222ZM127.221 49.1626C126.975 49.1654 126.731 49.1202 126.503 49.0298C126.289 48.9444 126.097 48.8128 125.943 48.6448C125.779 48.4621 125.659 48.2456 125.593 48.0116L126.066 47.8423C126.147 48.0891 126.302 48.3069 126.511 48.4678C126.721 48.6037 126.969 48.6711 127.221 48.6603C127.475 48.668 127.725 48.6009 127.939 48.4678C128.158 48.3044 128.328 48.0871 128.432 47.8384L128.877 47.9982C128.761 48.3522 128.53 48.6596 128.218 48.8739C127.923 49.0645 127.575 49.165 127.221 49.1626Z" fill="#151515"/>
<path d="M133.145 54.0319V49.5888H133.827L135.5 52.4958L137.18 49.5888H137.858V54.0319H137.135V50.4912H137.331L135.702 53.3176H135.297L133.67 50.4816H133.867V54.0319H133.145Z" fill="#151515"/>
<path d="M141.363 54.0319C140.655 54.0319 140.095 53.8295 139.685 53.4247C139.274 53.0218 139.07 52.47 139.07 51.7559C139.059 51.3348 139.152 50.9174 139.34 50.5397C139.508 50.2088 139.768 49.9321 140.089 49.7416C140.427 49.5459 140.812 49.4468 141.204 49.4552C141.567 49.4432 141.926 49.5332 142.239 49.7149C142.526 49.888 142.751 50.1439 142.886 50.4481C143.042 50.8024 143.118 51.1863 143.108 51.5727V51.8362H139.698V51.3607H142.559L142.409 51.4753C142.432 51.0965 142.324 50.7212 142.103 50.4118C141.993 50.283 141.855 50.1813 141.699 50.115C141.543 50.0487 141.373 50.0196 141.204 50.03C141.013 50.0199 140.823 50.0547 140.649 50.1318C140.475 50.2088 140.322 50.3257 140.202 50.4729C139.952 50.8244 139.828 51.2497 139.852 51.6796V51.7598C139.852 52.2982 139.987 52.7049 140.256 52.9799C140.404 53.1219 140.58 53.2318 140.773 53.3028C140.966 53.3738 141.171 53.4043 141.377 53.3923C141.629 53.3948 141.88 53.3568 142.12 53.2796C142.364 53.195 142.589 53.0655 142.784 52.8977L143.05 53.4515C142.833 53.642 142.578 53.7851 142.301 53.8715C142 53.9765 141.683 54.0307 141.363 54.0319Z" fill="#151515"/>
<path d="M143.916 55.109V53.3574H144.417C144.632 53.0377 144.785 52.6831 144.868 52.311C144.968 51.8401 145.016 51.3603 145.008 50.8797V49.5888H148.305V53.3574H149.033V55.109H148.305V53.9716H144.637V55.109H143.916ZM145.2 53.365H147.513V50.203H145.733V51.0238C145.734 51.4556 145.688 51.8864 145.596 52.3091C145.524 52.679 145.39 53.0354 145.2 53.365Z" fill="#151515"/>
<path d="M149.975 54.0223V49.5888H150.731V53.2751H150.485L153.324 49.5984H154.014V54.0319H153.259V50.3475H153.514L150.667 54.0319L149.975 54.0223Z" fill="#151515"/>
<path d="M159.383 55.2436V54.0793H155.495V49.5888H156.3V53.4467H158.553V49.5888H159.358V53.4467H160.073V55.2398L159.383 55.2436Z" fill="#151515"/>
<path d="M161.15 54.0223V49.5888H161.905V53.2751H161.66L164.497 49.5984H165.189V54.0319H164.434V50.3475H164.689L161.842 54.0319L161.15 54.0223Z" fill="#151515"/>
<path d="M166.67 54.0319V49.5888H167.49V51.4263H169.896V49.5888H170.71V54.0319H169.896V52.0618H167.49V54.0319H166.67Z" fill="#151515"/>
<path d="M174.154 54.0312C173.742 54.0413 173.335 53.9458 172.973 53.7543C172.639 53.5683 172.37 53.2897 172.2 52.9543C172.006 52.5677 171.91 52.1414 171.922 51.7114C171.91 51.2896 172.007 50.8716 172.204 50.4953C172.381 50.1703 172.651 49.9018 172.981 49.722C173.341 49.5378 173.743 49.4458 174.15 49.4548C174.443 49.4541 174.735 49.5032 175.01 49.5999C175.268 49.6841 175.5 49.8268 175.689 50.0161L175.408 50.5793C175.243 50.4209 175.046 50.2968 174.829 50.2146C174.63 50.1382 174.418 50.098 174.203 50.0962C174.008 50.0867 173.812 50.119 173.631 50.191C173.45 50.2629 173.287 50.3726 173.154 50.5124C172.9 50.7912 172.773 51.194 172.775 51.721C172.744 52.1619 172.879 52.5985 173.154 52.9505C173.285 53.094 173.447 53.2072 173.628 53.2816C173.81 53.356 174.007 53.3896 174.203 53.3801C174.414 53.3782 174.623 53.3394 174.819 53.2656C175.04 53.1865 175.241 53.0643 175.41 52.9066L175.691 53.4603C175.499 53.6542 175.261 53.8003 174.999 53.8861C174.727 53.9802 174.442 54.0292 174.154 54.0312Z" fill="#151515"/>
<path d="M176.768 54.0319V49.5888H177.582V51.4263H178.397L179.844 49.5888H180.728L179.04 51.747L178.824 51.5012C178.98 51.5133 179.132 51.5564 179.271 51.6279C179.408 51.7056 179.531 51.8056 179.634 51.9236C179.774 52.0878 179.901 52.2624 180.013 52.4459L180.942 54.0261H180.068L179.254 52.6571C179.182 52.522 179.092 52.3973 178.985 52.2865C178.903 52.1999 178.8 52.1341 178.686 52.0945C178.551 52.0567 178.411 52.0392 178.27 52.0427H177.582V54.0204L176.768 54.0319Z" fill="#151515"/>
<path d="M181.75 54.0223V49.5888H182.505V53.2751H182.26L185.097 49.5984H185.789V54.0319H185.044V50.3475H185.299L182.452 54.0319L181.75 54.0223Z" fill="#151515"/>
<path d="M187.27 54.0222V49.5742H188.025V53.2726H187.784L190.618 49.5838H191.309V54.0318H190.549V50.3354H190.804L187.959 54.0318L187.27 54.0222ZM189.287 49.1686C189.043 49.1732 188.8 49.1307 188.574 49.0437C188.36 48.9579 188.169 48.8265 188.015 48.6592C187.852 48.4757 187.733 48.2599 187.665 48.0268L188.137 47.8577C188.219 48.0976 188.371 48.3092 188.574 48.467C188.782 48.6033 189.03 48.6707 189.281 48.6592C189.535 48.6672 189.785 48.6002 190 48.467C190.218 48.3042 190.387 48.087 190.49 47.8384L190.936 47.998C190.82 48.3517 190.588 48.6589 190.276 48.8726C189.984 49.0647 189.639 49.1677 189.287 49.1686Z" fill="#151515"/>
<path d="M199.103 55.2436V54.0793H195.214V49.5888H196.019V53.4467H198.271V49.5888H199.076V53.4467H199.792V55.2398L199.103 55.2436Z" fill="#151515"/>
<path d="M202.895 54.0319C202.186 54.0319 201.626 53.8297 201.217 53.4255C200.805 53.0231 200.6 52.472 200.6 51.7588C200.588 51.3367 200.679 50.9179 200.866 50.5384C201.036 50.2083 201.295 49.9321 201.616 49.7413C201.954 49.5454 202.341 49.4464 202.733 49.4552C203.096 49.4432 203.455 49.5331 203.769 49.7146C204.054 49.8886 204.28 50.1438 204.416 50.4468C204.571 50.801 204.647 51.1842 204.638 51.57V51.8332H201.23V51.3584H204.091L203.941 51.4728C203.964 51.0944 203.856 50.7196 203.634 50.4106C203.525 50.282 203.387 50.1804 203.231 50.1142C203.075 50.048 202.906 50.0189 202.737 50.0292C202.546 50.019 202.356 50.0538 202.182 50.1307C202.008 50.2077 201.855 50.3245 201.735 50.4716C201.481 50.8216 201.356 51.2468 201.381 51.6768V51.7569C201.381 52.2946 201.513 52.7104 201.783 52.9754C201.931 53.117 202.107 53.2266 202.3 53.2975C202.493 53.3684 202.699 53.399 202.904 53.3873C203.157 53.3901 203.408 53.3521 203.648 53.2748C203.892 53.1904 204.117 53.061 204.312 52.8935L204.578 53.4465C204.361 53.6363 204.107 53.7792 203.831 53.866C203.53 53.9724 203.214 54.0285 202.895 54.0319Z" fill="#151515"/>
<path d="M205.85 54.0319V49.5888H206.659V51.4263H209.073V49.5888H209.89V54.0319H209.073V52.0618H206.659V54.0319H205.85Z" fill="#151515"/>
<path d="M212.316 54.0319V50.2339H210.697V49.5888H214.736V50.2339H213.12V54.0319H212.316Z" fill="#151515"/>
<path d="M215.617 55.9168V50.5913C215.617 50.4196 215.617 50.244 215.599 50.0665C215.582 49.889 215.568 49.7115 215.544 49.5339H216.341L216.439 50.5643H216.341C216.423 50.2323 216.63 49.9425 216.919 49.752C217.233 49.5484 217.603 49.4447 217.979 49.4549C218.351 49.4467 218.718 49.5424 219.037 49.7308C219.345 49.9216 219.588 50.1975 219.737 50.5238C219.912 50.9135 219.998 51.3366 219.987 51.7626C219.998 52.1898 219.913 52.6141 219.737 53.0052C219.589 53.3337 219.346 53.6118 219.037 53.804C218.718 53.9923 218.351 54.0881 217.979 54.0799C217.607 54.0888 217.242 53.985 216.933 53.7828C216.646 53.5907 216.437 53.3059 216.343 52.9782H216.441V55.9168H215.617ZM217.78 53.4393C217.968 53.4468 218.155 53.4125 218.327 53.339C218.5 53.2655 218.653 53.1547 218.775 53.0148C219.023 52.7292 219.145 52.3125 219.145 51.7626C219.145 51.2126 219.023 50.7978 218.775 50.52C218.651 50.3822 218.498 50.2732 218.326 50.2011C218.154 50.129 217.967 50.0955 217.78 50.1031C217.595 50.0962 217.411 50.1299 217.24 50.2021C217.07 50.2742 216.919 50.3828 216.797 50.52C216.548 50.7939 216.423 51.2081 216.423 51.7626C216.423 52.317 216.545 52.7344 216.789 53.0148C216.911 53.1561 217.065 53.2679 217.238 53.3415C217.411 53.4151 217.6 53.4486 217.788 53.4393H217.78Z" fill="#151515"/>
<path d="M11.3001 45.3867C11.2179 43.3397 12.7949 42.242 13.5115 45.251C14.2281 48.2601 15.2015 54.9743 15.2015 54.9743C15.2015 54.9743 11.4182 54.3116 11.4593 54.0429C11.5004 53.7742 11.3001 45.3867 11.3001 45.3867Z" fill="#00578A"/>
<path d="M7.66548 40.4638C7.56485 37.9366 9.52072 36.5926 10.4084 40.2955C11.296 43.9984 12.5087 52.2815 12.5087 52.2815C12.5087 52.2815 7.81255 51.4654 7.86416 51.1339C7.91576 50.8024 7.66548 40.4638 7.66548 40.4638Z" fill="#007D99"/>
<path d="M4.00912 36.8369C3.89805 34.0258 6.02858 32.5258 6.99287 36.6503C7.95716 40.7749 9.27738 49.9926 9.27738 49.9926C9.27738 49.9926 3.16347 43.6038 3.219 43.241C3.27454 42.8781 4.00912 36.8369 4.00912 36.8369Z" fill="#01A6A0"/>
<path d="M28.698 73.5544C27.8351 59.998 13.7591 59.9122 7.71615 55.1042C1.67315 50.2962 0.345582 38.0234 0.718323 35.2698C1.09106 32.5161 2.55394 31.1559 3.76918 35.0019C4.98441 38.8478 6.1205 45.774 10.7057 48.9742C15.2909 52.1745 23.8822 52.5956 18.9928 49.061C12.6103 44.4469 13.7155 39.9871 15.2316 39.0545C16.391 38.3413 19.1052 43.3342 22.8862 45.3733C26.6672 47.4124 32.3239 49.0164 34.9407 55.3684C37.9155 62.5893 28.698 73.5544 28.698 73.5544Z" fill="#00C6BF"/>
<path d="M57.3836 6.47221C53.2177 3.62669 46.2957 1.99852 39.5038 6.37015C36.7503 8.99364 34.4354 12.5486 32.8751 17.1652C32.8751 17.1652 24.89 8.3734 12.1144 13.1687C-0.661277 17.9639 0.131616 31.8164 0.131616 31.8164C0.131616 31.8164 3.80801 20.5365 16.1018 19.8219C28.3956 19.1073 34.7968 30.9601 34.7968 30.9601C34.7968 30.9601 36.3577 18.9516 47.5067 16.0933C57.7889 13.4672 63.9766 21.5496 61.3761 31.6097C65.8072 21.371 64.0047 10.9919 57.3836 6.47221Z" fill="#00578A"/>
<path d="M52.3619 49.4294C52.3619 49.4294 41.8365 36.9334 23.2799 43.6061C23.2799 43.6061 32.7631 43.405 37.0822 54.235C39.7699 60.9738 33.2471 70.8617 33.2471 70.8617C33.2471 70.8617 44.716 61.435 52.3619 49.4294Z" fill="#00578A"/>
<path d="M71.4665 8.87063C65.1747 -0.385846 49.4477 -3.13088 39.4742 6.34205C46.2712 1.97992 53.1983 3.60455 57.3673 6.44388C64.001 10.9537 65.787 21.3 61.3731 31.5318C61.1015 32.5695 60.7535 33.5858 60.3321 34.5723C56.0814 44.5749 51.0092 50.9411 51.0092 50.9411C43.5871 62.1457 32.9739 70.9963 32.9739 70.9963C74.0824 53.7719 82.2514 24.7505 71.4665 8.87063Z" fill="#00C6BF"/>
<path style="mix-blend-mode:multiply" opacity="0.29" d="M56.7633 17.0231C62.2691 20.4024 62.3696 27.2319 61.2561 31.5471C65.6643 21.3179 63.8669 10.9741 57.2649 6.46543C53.1109 3.62681 46.2089 2.00259 39.4365 6.36362C44.9073 3.17877 57.6429 0.592192 56.7633 17.0231Z" fill="#00578A"/>
<path style="mix-blend-mode:multiply" opacity="0.29" d="M48.6096 46.0881C46.3761 54.1083 37.2636 66.8845 33.2432 70.8617C33.2432 70.8617 42.9812 62.9306 52.3619 49.2071C51.2005 48.1377 49.9497 46.9792 48.6096 46.0881Z" fill="#00578A"/>
</svg>
